<?xml version="1.0" encoding="UTF-8" standalone="no"?>
<!DOCTYPE svg PUBLIC "-//W3C//DTD SVG 1.1//EN" "http://www.w3.org/Graphics/SVG/1.1/DTD/svg11.dtd">
<svg width="100%" height="100%" viewBox="0 0 301 203" version="1.1" xmlns="http://www.w3.org/2000/svg" xmlns:xlink="http://www.w3.org/1999/xlink" xml:space="preserve" xmlns:serif="http://www.serif.com/" style="fill-rule:evenodd;clip-rule:evenodd;stroke-linejoin:round;stroke-miterlimit:2;">
    <g transform="matrix(1,0,0,1,-242.137,-389.389)">
        <g>
            <path d="M264.905,444.974C264.301,444.102 263.862,443.096 263.641,441.991C261.035,428.961 267.976,418.273 278.223,410.533C291.32,400.641 309.446,395.897 310.376,395.767C346.148,390.743 367.482,401.389 378.121,416.79C388.339,431.579 389.044,451.52 382.152,469.247C371.943,495.506 345.472,516.502 311.767,508.076C266.425,496.74 264.645,458.875 264.905,444.974ZM279.367,434.153C280.12,435.179 280.638,436.399 280.831,437.746C280.943,438.53 280.778,441.36 280.715,445.496C280.534,457.359 282.745,484.328 315.648,492.554C340.484,498.763 359.716,482.799 367.24,463.449C372.17,450.769 372.266,436.463 364.958,425.884C356.85,414.148 340.101,407.818 312.925,411.566L312.838,411.588C309.873,412.367 297.261,416.205 287.866,423.3C283.938,426.267 280.356,429.776 279.367,434.153Z"/>
            <path d="M265.501,426.168C269.697,425.292 273.87,427.898 274.899,432.095C275.703,435.372 274.358,438.676 271.765,440.522C271.891,440.998 271.975,441.493 272.012,442.002C272.332,446.405 269.017,450.24 264.613,450.56C252.056,451.473 250.988,451.31 249.807,451.207L248.016,450.86L246.044,449.955L244.381,448.573L243.211,446.946L242.514,445.272L242.152,443.078C242.11,442.224 242.289,440.115 242.292,434.867C242.294,430.624 245.608,427.121 249.844,426.884C260.84,426.267 264.804,426.179 265.501,426.168Z"/>
            <path d="M417.444,418.294C419.235,417.843 421.19,418.006 422.97,418.896L425.536,420.918L426.944,423.365L427.38,425.308L427.311,427.375L426.039,430.57L423.506,432.964L421.616,433.792L419.534,434.183C414.303,434.763 383.871,435.671 379.007,436.192C374.617,436.662 370.671,433.479 370.201,429.089C369.731,424.699 372.914,420.753 377.304,420.283C381.887,419.792 413.856,418.444 417.444,418.294ZM411.834,423.429C411.339,424.754 411.259,426.079 411.507,427.392C411.285,426.094 411.38,424.733 411.834,423.429ZM412.239,429.632C412.797,430.809 413.793,432.196 415.815,433.207C414.206,432.403 412.986,431.127 412.239,429.632Z"/>
            <path d="M411.678,434.119C410.618,431.426 411.119,428.393 412.885,426.189C412.926,424.716 413.373,423.237 414.26,421.928C415.118,420.663 418.734,412.577 424.621,405.22C429.366,399.291 435.492,393.946 442.582,391.556C449.623,389.183 459.639,389.001 469.427,389.96C482.819,391.272 495.723,394.491 498.211,395.113C509.428,397.917 516.52,402.222 520.969,407.602C525.424,412.991 527.485,419.615 527.645,427.834C527.835,437.549 525.19,449.968 522.116,465.603C520.546,473.592 512.7,482.435 503.235,488.651C493.883,494.793 483.267,498.194 477.54,497.58C447.521,494.364 431.288,485.939 422.41,476.7C412.543,466.433 410.88,454.739 411.094,445.189C411.189,440.9 411.589,435.314 411.678,434.119ZM427.281,431.22C427.632,433.523 427.693,436.437 427.426,439.824C426.95,445.864 425.879,454.807 431.633,462.839C437.934,471.637 451.605,478.71 479.245,481.671C480.239,481.778 481.53,481.398 483.014,480.931C486.525,479.826 490.61,477.8 494.452,475.278C500.009,471.628 505.495,467.207 506.417,462.516C508.466,452.096 510.374,443.217 511.224,435.689C512,428.813 512.119,423.327 509.568,419.107C507.092,415.012 502.177,412.597 494.33,410.635C492.043,410.063 480.181,407.091 467.867,405.884C460.517,405.164 452.979,404.936 447.692,406.718C442.19,408.572 437.984,413.722 434.791,418.349C430.693,424.29 428.192,429.893 427.503,430.909C427.431,431.015 427.357,431.118 427.281,431.22Z"/>
            <path d="M515.994,421.427C515.262,420.681 514.666,419.778 514.261,418.744C512.652,414.633 514.684,409.988 518.796,408.38C521.317,407.393 526.892,405.199 531.121,405.4L535.515,406.344L538.626,408.236L540.295,410L541.548,412.054L542.761,416.369C544.05,427.454 540.088,431.858 536.826,433.756L533.636,435.021L529.547,435.331C526.941,435.158 523.861,433.941 521.474,433.543C517.118,432.817 514.172,428.692 514.898,424.337C515.075,423.272 515.456,422.291 515.994,421.427Z"/>
        </g>
        <g transform="matrix(1,0,0,1,-2.2293,0.368659)">
            <path d="M320.476,556.228C318.001,555.461 316.615,552.828 317.383,550.354C318.151,547.879 320.783,546.493 323.257,547.261C378.527,564.403 444.814,562.364 487.198,539.32C489.475,538.083 492.327,538.926 493.565,541.202C494.803,543.478 493.959,546.331 491.683,547.569C447.415,571.636 378.202,574.132 320.476,556.228Z"/>
            <path d="M316.61,556.915C314.177,556.023 312.927,553.324 313.818,550.891C314.71,548.459 317.409,547.208 319.842,548.1C323.291,549.365 341.572,561.346 361.542,570.938C374.087,576.963 387.31,582.092 397.633,582.4C418.719,583.03 441.421,573.607 459.028,563.987C476.468,554.459 488.926,544.764 489.474,544.104C491.129,542.111 494.091,541.837 496.084,543.492C498.078,545.148 498.352,548.11 496.697,550.103C496.096,550.826 482.651,561.779 463.529,572.227C444.573,582.583 420.054,592.463 397.353,591.785C385.97,591.445 371.309,586.045 357.477,579.402C337.884,569.991 319.994,558.156 316.61,556.915Z"/>
            <path d="M359.8,566.097C359.422,564.584 360.344,563.047 361.857,562.669C363.371,562.29 364.907,563.212 365.286,564.726C365.742,566.551 365.727,567.753 365.756,569.463C367.789,570.035 368.729,570.382 370.343,570.86C370.389,569.696 370.585,568.74 371.321,566.493C371.807,565.01 373.405,564.201 374.888,564.687C376.371,565.173 377.18,566.771 376.694,568.254C375.671,571.376 376.04,571.358 375.981,574.601C375.966,575.463 375.557,576.272 374.871,576.796C374.186,577.32 373.299,577.502 372.462,577.291C367.206,575.963 367.421,575.72 362.289,574.384C361.099,574.074 360.246,573.031 360.178,571.804C360.04,569.297 360.319,568.173 359.8,566.097Z"/>
            <path d="M385.232,573.814C385.109,572.524 384.897,570.455 384.555,567.499C384.375,565.949 385.488,564.545 387.038,564.365C388.588,564.186 389.992,565.299 390.171,566.849C390.803,572.303 391.048,574.546 391.03,575.575L390.931,576.56L390.682,577.343L390.23,578.093L389.659,578.674L388.583,579.344L387.155,579.639C386.151,579.682 383.709,579.309 375.758,578.6C374.203,578.462 373.054,577.087 373.193,575.533C373.331,573.979 374.706,572.83 376.26,572.968C380.655,573.36 383.577,573.646 385.232,573.814Z"/>
            <path d="M407.377,575.259C407.907,573.344 408.015,572.106 407.856,571.214C407.676,570.203 407.149,569.724 406.876,569.178C406.178,567.783 406.744,566.083 408.14,565.385C409.536,564.687 411.235,565.254 411.933,566.649C412.401,567.584 413.113,568.489 413.423,570.22C413.716,571.862 413.664,574.332 412.309,578.468L411.64,579.603L410.665,580.336C410.161,580.596 409.235,580.868 407.988,581.016C403.325,581.569 392.165,581.074 390.945,581.019C389.387,580.947 388.179,579.624 388.251,578.065C388.322,576.506 389.645,575.299 391.204,575.37C392.292,575.42 404.109,575.295 407.377,575.259Z"/>
            <path d="M425.742,572.824C425.737,572.463 425.719,571.962 425.66,571.575C425.372,569.706 424.692,567.597 424.304,566.158C423.899,564.651 424.793,563.099 426.299,562.693C427.806,562.287 429.359,563.181 429.764,564.688C430.441,567.203 431.704,571.455 431.349,573.996C431.256,574.665 431.074,575.261 430.823,575.772L429.984,576.965L428.925,577.757L427.689,578.199C415.04,580.772 415.028,580.477 413.944,580.752C412.432,581.137 410.892,580.222 410.508,578.709C410.123,577.197 411.039,575.657 412.551,575.273C413.632,574.998 413.665,575.269 425.742,572.824Z"/>
            <path d="M436.869,568.252C436.551,566.834 436.114,564.901 436.042,564.671C435.574,563.183 436.403,561.594 437.891,561.126C439.38,560.659 440.968,561.487 441.436,562.976C441.588,563.46 442.843,567.613 442.861,569.717C442.865,570.101 442.836,570.445 442.786,570.739L442.538,571.606L442.16,572.291L441.737,572.776L440.849,573.341L440.091,573.527L439.824,573.548C439.248,573.591 437.258,573.763 435.27,574.365C434.201,574.688 433.105,575.109 432.376,575.807C431.249,576.886 429.457,576.847 428.378,575.72C427.299,574.593 427.338,572.802 428.465,571.723C430.564,569.713 434.301,568.714 436.869,568.252Z"/>
            <path d="M446.548,564.285C446.338,563.582 446.025,563.073 445.936,562.806C445.442,561.326 446.243,559.723 447.724,559.23C449.204,558.737 450.806,559.538 451.3,561.018C451.619,561.975 453.07,564.697 452.001,568.396L451.658,569.163L450.972,569.914L450.002,570.399L449.024,570.499L448.003,570.235L447.46,569.903C447.243,569.929 445.818,570.128 444.115,570.993C442.724,571.699 441.021,571.143 440.314,569.752C439.608,568.361 440.163,566.658 441.555,565.951C443.701,564.861 445.327,564.418 446.548,564.285ZM447.358,569.84L447.347,569.834C447.35,569.836 447.353,569.838 447.358,569.84Z"/>
        </g>
    </g>
</svg>
